<svg width="46" height="46" viewBox="0 0 46 46" fill="none" xmlns="http://www.w3.org/2000/svg">
<rect x="0.5" y="0.5" width="45" height="45" rx="7.5" fill="white" stroke="#E0E0E0"/>
<g clip-path="url(#clip0_0_152)">
<path d="M31.2565 35H15.3589C12.9486 35 11 33.0514 11 30.6411V15.3589C11 12.9486 12.9486 11 15.3589 11H31.2565C33.6668 11 35.6154 12.9486 35.6154 15.3589V30.6411C35.6154 33.0514 33.6668 35 31.2565 35Z" fill="#FF26BE"/>
<path d="M30.8666 33.974H15.7488C13.6978 33.974 12.0259 32.3022 12.0259 30.2512V15.7488C12.0259 13.6978 13.6978 12.026 15.7488 12.026H30.8567C32.9185 12.026 34.5795 13.6978 34.5795 15.7488V30.2414C34.5894 32.3022 32.9175 33.974 30.8666 33.974Z" fill="#2E001F"/>
<path d="M20.7329 22.2305L23.605 27.7483C23.6562 27.83 23.6257 27.9127 23.543 27.9127H21.7579C21.6447 27.9127 21.5935 27.8822 21.5423 27.7798C20.8855 26.426 20.2189 25.0721 19.5317 23.6159H19.511C18.8956 24.9904 18.2182 26.4368 17.5625 27.7907C17.5113 27.8724 17.4601 27.9039 17.3773 27.9039H15.6868C15.5844 27.9039 15.5735 27.8222 15.6257 27.7601L18.4358 22.4058L15.7183 16.9904C15.6562 16.9087 15.7183 16.8467 15.7793 16.8467H17.5437C17.6461 16.8467 17.6875 16.8673 17.7279 16.9599C18.3738 18.3137 19.0305 19.7089 19.6459 21.0726H19.6666C20.2613 19.7188 20.918 18.3137 21.5541 16.9697C21.6053 16.888 21.6358 16.8368 21.7392 16.8368H23.3904C23.4721 16.8368 23.5036 16.8988 23.4524 16.9806L20.7329 22.2305ZM24.1082 23.9024C24.1082 21.5127 25.6983 19.6459 28.2209 19.6459C28.4366 19.6459 28.5488 19.6459 28.7546 19.6666V16.9491C28.7546 16.887 28.8058 16.8467 28.857 16.8467H30.4777C30.5594 16.8467 30.5801 16.8772 30.5801 16.9284V26.3443C30.5801 26.6209 30.5801 26.9695 30.6313 27.3495C30.6313 27.4116 30.6106 27.4313 30.5495 27.4628C29.688 27.8734 28.7851 28.0575 27.9236 28.0575C25.6974 28.0663 24.1072 26.6928 24.1082 23.9024ZM28.7536 21.2774C28.6098 21.2154 28.405 21.175 28.1589 21.175C26.8661 21.175 25.9642 22.1695 25.9642 23.8217C25.9642 25.7092 26.8878 26.4683 28.0466 26.4683C28.2928 26.4683 28.5596 26.4378 28.7546 26.3551V21.2774H28.7536Z" fill="#FFD9F2"/>
</g>
<defs>
<clipPath id="clip0_0_152">
<rect width="24.6154" height="24" fill="white" transform="translate(11 11)"/>
</clipPath>
</defs>
</svg>
