<svg width="46" height="46" viewBox="0 0 46 46" fill="none" xmlns="http://www.w3.org/2000/svg">
<rect x="0.5" y="0.5" width="45" height="45" rx="7.5" fill="white" stroke="#E0E0E0"/>
<path d="M22.994 23.0045C22.994 20.7996 24.7815 19.003 26.9955 19.003C29.2004 19.003 30.997 20.7905 30.997 23.0045C30.997 25.2094 29.2095 27.006 26.9955 27.006C24.7906 27.006 22.994 25.2094 22.994 23.0045Z" fill="#1ABCFE"/>
<path d="M15 30.9985C15 28.7936 16.7875 26.997 19.0015 26.997H23.003V30.9985C23.003 33.2034 21.2155 35 19.0015 35C16.7875 35 15 33.2125 15 30.9985Z" fill="#0ACF83"/>
<path d="M22.994 11.0091V19.003H26.9955C29.2004 19.003 30.997 17.2155 30.997 15.0015C30.997 12.7966 29.2095 11 26.9955 11H22.994V11.0091Z" fill="#FF7262"/>
<path d="M15 15.0106C15 17.2155 16.7875 19.0121 19.0015 19.0121H23.003V11.0091H19.0015C16.7875 11.0091 15 12.7966 15 15.0106Z" fill="#F24E1E"/>
<path d="M15 23.0045C15 25.2094 16.7875 27.006 19.0015 27.006H23.003V19.003H19.0015C16.7875 19.003 15 20.7996 15 23.0045Z" fill="#A259FF"/>
</svg>
