<svg width="176" height="32" viewBox="0 0 176 32" fill="none" xmlns="http://www.w3.org/2000/svg">
<path d="M55.4435 12.0472C55.3725 11.3311 55.0677 10.7747 54.5291 10.3782C53.9905 9.98165 53.2596 9.78338 52.3363 9.78338C51.7089 9.78338 51.1792 9.87216 50.7472 10.0497C50.3151 10.2214 49.9837 10.4611 49.7528 10.7688C49.5279 11.0766 49.4155 11.4258 49.4155 11.8164C49.4036 12.1419 49.4717 12.426 49.6197 12.6687C49.7736 12.9113 49.9837 13.1214 50.25 13.299C50.5163 13.4706 50.8241 13.6216 51.1733 13.7518C51.5225 13.8761 51.8954 13.9826 52.2919 14.0714L53.9254 14.462C54.7185 14.6396 55.4465 14.8763 56.1094 15.1722C56.7723 15.4682 57.3464 15.8321 57.8317 16.2642C58.317 16.6963 58.6928 17.2053 58.9592 17.7912C59.2314 18.3771 59.3705 19.0489 59.3764 19.8065C59.3705 20.9192 59.0864 21.8839 58.5241 22.7006C57.9678 23.5115 57.1629 24.1418 56.1094 24.5916C55.0618 25.0355 53.7982 25.2575 52.3185 25.2575C50.8507 25.2575 49.5723 25.0326 48.4833 24.5827C47.4002 24.1329 46.5539 23.4671 45.9442 22.5852C45.3406 21.6974 45.0239 20.5996 44.9943 19.2915H48.7141C48.7556 19.9012 48.9302 20.4102 49.2379 20.8185C49.5516 21.221 49.9689 21.5258 50.4897 21.733C51.0165 21.9342 51.6113 22.0348 52.2741 22.0348C52.9252 22.0348 53.4904 21.9401 53.9698 21.7507C54.4551 21.5613 54.831 21.2979 55.0973 20.9606C55.3636 20.6232 55.4968 20.2356 55.4968 19.7976C55.4968 19.3892 55.3755 19.0459 55.1328 18.7678C54.8961 18.4896 54.5469 18.2528 54.0852 18.0575C53.6295 17.8622 53.0702 17.6847 52.4073 17.5249L50.4276 17.0277C48.8946 16.6548 47.6843 16.0719 46.7965 15.2788C45.9087 14.4857 45.4678 13.4174 45.4737 12.0739C45.4678 10.973 45.7608 10.0112 46.3526 9.18857C46.9504 8.36589 47.7701 7.72372 48.8118 7.26207C49.8535 6.80043 51.0372 6.5696 52.3629 6.5696C53.7124 6.5696 54.8902 6.80043 55.8963 7.26207C56.9084 7.72372 57.6955 8.36589 58.2578 9.18857C58.8201 10.0112 59.1101 10.9641 59.1278 12.0472H55.4435ZM65.673 17.1165V25H61.8911V6.81818H65.5665V13.7695H65.7263C66.0341 12.9646 66.5312 12.3343 67.2178 11.8786C67.9043 11.4169 68.7655 11.1861 69.8012 11.1861C70.7482 11.1861 71.5738 11.3932 72.2781 11.8075C72.9884 12.2159 73.5388 12.8048 73.9294 13.5742C74.326 14.3377 74.5213 15.2521 74.5154 16.3175V25H70.7334V16.9922C70.7393 16.1518 70.5262 15.4978 70.0942 15.0302C69.6681 14.5626 69.0703 14.3288 68.3009 14.3288C67.786 14.3288 67.3302 14.4383 66.9337 14.6573C66.5431 14.8763 66.2353 15.1959 66.0104 15.6161C65.7914 16.0304 65.6789 16.5305 65.673 17.1165ZM81.3801 25.2575C80.5101 25.2575 79.7348 25.1065 79.0542 24.8047C78.3735 24.4969 77.8349 24.0442 77.4384 23.4464C77.0478 22.8427 76.8525 22.091 76.8525 21.1914C76.8525 20.4338 76.9915 19.7976 77.2697 19.2827C77.5479 18.7678 77.9267 18.3535 78.4061 18.0398C78.8855 17.7261 79.43 17.4893 80.0396 17.3295C80.6551 17.1697 81.3002 17.0573 81.975 16.9922C82.7681 16.9093 83.4073 16.8324 83.8926 16.7614C84.3779 16.6844 84.7301 16.572 84.949 16.424C85.168 16.276 85.2775 16.0571 85.2775 15.767V15.7138C85.2775 15.1515 85.1 14.7165 84.7449 14.4087C84.3957 14.101 83.8985 13.9471 83.2534 13.9471C82.5727 13.9471 82.0312 14.098 81.6287 14.3999C81.2263 14.6958 80.9599 15.0687 80.8297 15.5185L77.3319 15.2344C77.5094 14.4058 77.8586 13.6896 78.3794 13.0859C78.9003 12.4763 79.572 12.0088 80.3947 11.6832C81.2233 11.3518 82.1821 11.1861 83.2711 11.1861C84.0287 11.1861 84.7537 11.2749 85.4462 11.4524C86.1446 11.63 86.7631 11.9052 87.3017 12.2781C87.8462 12.6509 88.2753 13.1303 88.589 13.7163C88.9026 14.2963 89.0595 14.9917 89.0595 15.8026V25H85.4728V23.109H85.3663C85.1473 23.5352 84.8543 23.911 84.4874 24.2365C84.1204 24.5561 83.6795 24.8076 83.1646 24.9911C82.6497 25.1687 82.0549 25.2575 81.3801 25.2575ZM82.4632 22.6474C83.0196 22.6474 83.5108 22.5379 83.937 22.3189C84.3631 22.094 84.6975 21.7921 84.9402 21.4134C85.1828 21.0346 85.3042 20.6055 85.3042 20.1261V18.679C85.1858 18.7559 85.023 18.8269 84.8159 18.892C84.6146 18.9512 84.3868 19.0075 84.1323 19.0607C83.8778 19.1081 83.6233 19.1525 83.3688 19.1939C83.1143 19.2294 82.8835 19.262 82.6763 19.2915C82.2324 19.3567 81.8448 19.4602 81.5133 19.6023C81.1819 19.7443 80.9244 19.9367 80.7409 20.1793C80.5575 20.4161 80.4657 20.712 80.4657 21.0671C80.4657 21.582 80.6522 21.9756 81.025 22.2479C81.4038 22.5142 81.8832 22.6474 82.4632 22.6474ZM93.8402 30.1136C93.3608 30.1136 92.911 30.0752 92.4908 29.9982C92.0765 29.9272 91.7332 29.8355 91.4609 29.723L92.3132 26.8999C92.7571 27.036 93.1566 27.11 93.5117 27.1218C93.8728 27.1336 94.1835 27.0508 94.4439 26.8732C94.7102 26.6957 94.9263 26.3938 95.092 25.9677L95.3139 25.3906L90.4222 11.3636H94.3995L97.2227 21.3778H97.3647L100.214 11.3636H104.218L98.9183 26.4737C98.6638 27.2076 98.3176 27.8468 97.8796 28.3913C97.4476 28.9418 96.9001 29.3649 96.2372 29.6609C95.5743 29.9627 94.7753 30.1136 93.8402 30.1136ZM109.936 17.1165V25H106.154V11.3636H109.758V13.7695H109.918C110.22 12.9764 110.726 12.3491 111.436 11.8874C112.146 11.4199 113.007 11.1861 114.02 11.1861C114.967 11.1861 115.792 11.3932 116.496 11.8075C117.201 12.2218 117.748 12.8137 118.139 13.5831C118.529 14.3466 118.725 15.258 118.725 16.3175V25H114.943V16.9922C114.949 16.1577 114.736 15.5066 114.304 15.0391C113.872 14.5656 113.277 14.3288 112.519 14.3288C112.01 14.3288 111.56 14.4383 111.17 14.6573C110.785 14.8763 110.483 15.1959 110.264 15.6161C110.051 16.0304 109.942 16.5305 109.936 17.1165ZM125.594 25.2575C124.724 25.2575 123.949 25.1065 123.268 24.8047C122.587 24.4969 122.049 24.0442 121.652 23.4464C121.262 22.8427 121.066 22.091 121.066 21.1914C121.066 20.4338 121.205 19.7976 121.484 19.2827C121.762 18.7678 122.141 18.3535 122.62 18.0398C123.099 17.7261 123.644 17.4893 124.253 17.3295C124.869 17.1697 125.514 17.0573 126.189 16.9922C126.982 16.9093 127.621 16.8324 128.106 16.7614C128.592 16.6844 128.944 16.572 129.163 16.424C129.382 16.276 129.491 16.0571 129.491 15.767V15.7138C129.491 15.1515 129.314 14.7165 128.959 14.4087C128.61 14.101 128.112 13.9471 127.467 13.9471C126.787 13.9471 126.245 14.098 125.843 14.3999C125.44 14.6958 125.174 15.0687 125.044 15.5185L121.546 15.2344C121.723 14.4058 122.072 13.6896 122.593 13.0859C123.114 12.4763 123.786 12.0088 124.609 11.6832C125.437 11.3518 126.396 11.1861 127.485 11.1861C128.243 11.1861 128.968 11.2749 129.66 11.4524C130.358 11.63 130.977 11.9052 131.516 12.2781C132.06 12.6509 132.489 13.1303 132.803 13.7163C133.117 14.2963 133.273 14.9917 133.273 15.8026V25H129.687V23.109H129.58C129.361 23.5352 129.068 23.911 128.701 24.2365C128.334 24.5561 127.893 24.8076 127.378 24.9911C126.864 25.1687 126.269 25.2575 125.594 25.2575ZM126.677 22.6474C127.233 22.6474 127.725 22.5379 128.151 22.3189C128.577 22.094 128.911 21.7921 129.154 21.4134C129.397 21.0346 129.518 20.6055 129.518 20.1261V18.679C129.4 18.7559 129.237 18.8269 129.03 18.892C128.829 18.9512 128.601 19.0075 128.346 19.0607C128.092 19.1081 127.837 19.1525 127.583 19.1939C127.328 19.2294 127.097 19.262 126.89 19.2915C126.446 19.3567 126.059 19.4602 125.727 19.6023C125.396 19.7443 125.138 19.9367 124.955 20.1793C124.771 20.4161 124.68 20.712 124.68 21.0671C124.68 21.582 124.866 21.9756 125.239 22.2479C125.618 22.5142 126.097 22.6474 126.677 22.6474ZM136.278 25V6.81818H140.123V14.8349H140.362L146.905 6.81818H151.513L144.766 14.9592L151.593 25H146.994L142.014 17.5249L140.123 19.8331V25H136.278ZM157.359 6.81818V25H153.515V6.81818H157.359ZM159.829 9.98757V6.81818H174.762V9.98757H169.195V25H165.396V9.98757H159.829Z" fill="#243A5A"/>
<path d="M0 16C0 8.45752 0 4.68629 2.34314 2.34314C4.68629 0 8.45752 0 16 0C23.5425 0 27.3137 0 29.6569 2.34314C32 4.68629 32 8.45752 32 16C32 23.5425 32 27.3137 29.6569 29.6569C27.3137 32 23.5425 32 16 32C8.45752 32 4.68629 32 2.34314 29.6569C0 27.3137 0 23.5425 0 16Z" fill="#243A5A"/>
<path d="M19.1998 20.8C19.6416 20.8 20.0078 21.1617 19.9201 21.5948C19.765 22.3596 19.3882 23.0684 18.8282 23.6284C18.0781 24.3786 17.0606 24.8 15.9998 24.8C14.9389 24.8 13.9215 24.3786 13.1714 23.6284C12.6114 23.0684 12.2346 22.3596 12.0795 21.5948C11.9917 21.1617 12.3579 20.8 12.7998 20.8H19.1998Z" fill="#2DF8BB"/>
<path d="M20.8818 14.2212C20.455 14.3355 20.1937 14.782 20.4101 15.1672C20.6378 15.5726 20.9529 15.9265 21.3362 16.2011C21.9379 16.6323 22.6706 16.8416 23.4094 16.7931C24.1481 16.7447 24.8472 16.4417 25.3875 15.9356C25.9279 15.4295 26.276 14.7517 26.3726 14.0177C26.4693 13.2837 26.3085 12.5389 25.9175 11.9102C25.5266 11.2815 24.9297 10.8078 24.2286 10.5698C23.5276 10.3318 22.7658 10.3443 22.0729 10.6051C21.6316 10.7712 21.2358 11.0314 20.9108 11.3641C20.6021 11.6802 20.739 12.1791 21.1216 12.4L21.5274 12.6343C22.1446 12.9907 22.023 13.9154 21.3345 14.0999L20.8818 14.2212Z" fill="#2DF8BB"/>
<path d="M11.1182 14.2212C11.545 14.3355 11.8064 14.782 11.59 15.1672C11.3622 15.5726 11.0472 15.9265 10.664 16.2011C10.0622 16.6323 9.32951 16.8416 8.59079 16.7931C7.852 16.7447 7.15289 16.4417 6.61255 15.9356C6.0722 15.4295 5.72405 14.7517 5.62742 14.0177C5.53079 13.2837 5.69164 12.5389 6.0826 11.9102C6.47354 11.2815 7.07039 10.8078 7.77143 10.5698C8.47247 10.3318 9.23439 10.3443 9.92727 10.6051C10.3685 10.7712 10.7644 11.0314 11.0893 11.3641C11.3981 11.6802 11.2611 12.1791 10.8785 12.4L10.4726 12.6343C9.85543 12.9907 9.97719 13.9154 10.6656 14.0999L11.1182 14.2212Z" fill="#2DF8BB"/>
</svg>
